<svg width="185" height="122" viewBox="0 0 185 122" fill="none" xmlns="http://www.w3.org/2000/svg">
<path d="M61.1148 106.039L61.1164 106.037C65.4871 100.577 67.6401 92.9911 67.6401 83.3414C67.6401 74.2337 65.4552 67.0036 61.0262 61.7114L61.0245 61.7093C56.5829 56.4586 50.4081 53.851 42.5666 53.851C37.9975 53.851 33.3529 54.8021 28.6358 56.6951L28.6327 56.6964C24.5974 58.3472 21.438 60.6182 19.181 63.5218C16.9227 66.4269 15.5881 69.9393 15.1632 74.0394L15.1628 74.0438C14.9949 75.8204 14.9107 77.543 14.9107 79.2117C14.9107 88.1218 17.412 96.232 22.412 103.529L22.4126 103.53C27.2827 110.605 34.0737 114.153 42.7332 114.153C50.5802 114.153 56.7301 111.459 61.1148 106.039ZM13.1549 18.5442L13.1559 18.5428C21.2918 6.82395 31.8355 1 44.8157 1C55.5868 1 64.7694 4.34728 72.3915 11.0349L72.3933 11.0364C77.2859 15.288 79.635 19.4296 79.635 23.4611C79.635 26.0521 78.9756 27.9041 77.7439 29.1129C76.5104 30.3234 74.6179 30.9726 71.9716 30.9726C69.3251 30.9726 67.4326 30.3234 66.1992 29.1129C64.9715 27.908 64.3124 26.064 64.3082 23.486L64.4722 21.8593L64.4748 21.8343V21.8091V21.4787C64.4748 19.5675 63.6603 17.6699 62.1132 15.7943C57.8631 10.5139 52.5888 7.84639 46.3151 7.84639C36.9503 7.84639 29.7906 11.3819 24.9116 18.4696L24.9098 18.4723C19.1259 26.991 16.2435 37.1136 16.2435 48.8173C16.2435 51.2005 16.3553 53.6654 16.5786 56.2118L16.6535 57.0661L17.3601 56.58C22.774 52.8553 27.9831 50.0971 32.9875 48.2974C36.8728 46.9413 41.0365 46.2613 45.4821 46.2613C47.0699 46.2613 48.743 46.3699 50.5019 46.5879L50.5136 46.5892C60.8472 47.6247 68.797 51.5399 74.4186 58.3041C79.6113 64.5911 82.2173 72.2933 82.2173 81.4417C82.2173 93.1597 78.4024 102.66 70.7921 109.989C63.1235 117.321 53.2575 121 41.1505 121C28.2919 121 18.453 116.405 11.5622 107.241C4.5444 97.8356 1 84.221 1 66.3271C1 46.0142 5.07053 30.1044 13.1549 18.5442ZM122.885 15.9609C118.513 21.3665 116.36 28.9547 116.36 38.6582C116.36 47.766 118.545 54.996 122.975 60.2884L122.976 60.2903C127.418 65.541 133.592 68.1486 141.434 68.1486C146.002 68.1486 150.648 67.1976 155.365 65.3044L155.368 65.3032C159.403 63.6524 162.562 61.3815 164.819 58.4778C167.077 55.5727 168.412 52.0603 168.837 47.9602V47.9559C169.005 46.1792 169.089 44.4565 169.089 42.788C169.089 33.8779 166.588 25.7677 161.589 18.4706L161.588 18.4696C156.717 11.3949 149.927 7.84639 141.267 7.84639C133.42 7.84639 127.271 10.5408 122.885 15.9609ZM109.582 63.6956C104.389 57.4086 101.783 49.7063 101.783 40.5579C101.783 28.8397 105.598 19.3392 113.209 12.0104C120.877 4.67894 130.743 1 142.85 1C155.708 1 165.546 5.59425 172.437 14.7574C179.455 24.1628 183 37.7779 183 55.6725C183 75.9855 178.93 91.8953 170.845 103.455L170.844 103.457C162.709 115.176 152.164 121 139.185 121C128.414 121 119.231 117.652 111.609 110.965L111.607 110.963C106.715 106.712 104.365 102.57 104.365 98.5386C104.365 95.9475 105.025 94.0955 106.257 92.8868C107.49 91.6763 109.382 91.027 112.029 91.027C114.675 91.027 116.568 91.6763 117.801 92.8868C119.029 94.0917 119.688 95.9356 119.692 98.5136L119.528 100.14L119.525 100.165V100.19V100.521C119.525 102.432 120.34 104.33 121.888 106.205C126.137 111.486 131.411 114.153 137.685 114.153C147.051 114.153 154.21 110.618 159.089 103.53L159.09 103.527C164.874 95.0087 167.756 84.8861 167.756 73.1824C167.756 70.7991 167.646 68.3343 167.422 65.7878L167.346 64.9337L166.64 65.4197C161.226 69.1446 156.017 71.9029 151.012 73.7024C147.127 75.0584 142.963 75.7383 138.519 75.7383C136.93 75.7383 135.258 75.6298 133.499 75.4118L133.487 75.4105C123.153 74.375 115.203 70.4598 109.582 63.6956Z" fill="white" stroke="#DA442B"/>
</svg>
