<svg width="183" height="121" viewBox="0 0 183 121" fill="none" xmlns="http://www.w3.org/2000/svg">
<path d="M170.755 103.242C178.919 91.5688 183 75.5456 183 55.1725C183 37.2222 179.446 23.4842 172.338 13.9583C165.341 4.65277 155.345 0 142.35 0C130.132 0 120.137 3.71671 112.362 11.1501C104.643 18.5836 100.783 28.2195 100.783 40.0579C100.783 49.3083 103.421 57.1273 108.697 63.5145L170.755 103.242ZM170.755 103.242C162.536 115.08 151.846 121 138.685 121C127.801 121 118.498 117.613 110.779 110.841L170.755 103.242ZM60.6148 105.539L60.6164 105.537C64.9871 100.077 67.1401 92.4911 67.1401 82.8414C67.1401 73.7337 64.9552 66.5036 60.5262 61.2114L60.5245 61.2093C56.0829 55.9586 49.9081 53.351 42.0666 53.351C37.4975 53.351 32.8529 54.3021 28.1358 56.1951L28.1327 56.1964C24.0974 57.8472 20.938 60.1182 18.681 63.0218C16.4227 65.9269 15.0881 69.4393 14.6632 73.5394L14.6628 73.5438C14.4949 75.3204 14.4107 77.043 14.4107 78.7117C14.4107 87.6218 16.912 95.732 21.912 103.029L21.9126 103.03C26.7827 110.105 33.5737 113.653 42.2332 113.653C50.0802 113.653 56.2301 110.959 60.6148 105.539ZM12.6549 18.0442L12.6559 18.0428C20.7918 6.32395 31.3355 0.5 44.3157 0.5C55.0868 0.5 64.2694 3.84728 71.8915 10.5349L71.8933 10.5364C76.7859 14.788 79.135 18.9296 79.135 22.9611C79.135 25.5521 78.4756 27.4041 77.2439 28.6129C76.0104 29.8234 74.1179 30.4726 71.4716 30.4726C68.8251 30.4726 66.9326 29.8234 65.6992 28.6129C64.4715 27.408 63.8124 25.564 63.8082 22.986L63.9722 21.3593L63.9748 21.3343V21.3091V20.9787C63.9748 19.0675 63.1603 17.1699 61.6132 15.2943C57.3631 10.0139 52.0888 7.34639 45.8151 7.34639C36.4503 7.34639 29.2906 10.8819 24.4116 17.9696L24.4098 17.9723C18.6259 26.491 15.7435 36.6136 15.7435 48.3173C15.7435 50.7005 15.8553 53.1654 16.0786 55.7118L16.1535 56.5661L16.8601 56.08C22.274 52.3553 27.4831 49.5971 32.4875 47.7974C36.3728 46.4413 40.5365 45.7613 44.9821 45.7613C46.5699 45.7613 48.243 45.8699 50.0019 46.0879L50.0019 46.088L50.0136 46.0892C60.3472 47.1247 68.297 51.0399 73.9186 57.8041C79.1113 64.0911 81.7173 71.7933 81.7173 80.9417C81.7173 92.6597 77.9024 102.16 70.2921 109.489C62.6235 116.821 52.7575 120.5 40.6505 120.5C27.7919 120.5 17.953 115.905 11.0622 106.741C4.0444 97.3356 0.5 83.721 0.5 65.8271C0.5 45.5142 4.57053 29.6044 12.6549 18.0442ZM122.385 15.4609L122.385 15.461C118.013 20.8666 115.86 28.4547 115.86 38.1582C115.86 47.266 118.045 54.496 122.475 59.7884L122.476 59.7903C126.918 65.041 133.092 67.6486 140.934 67.6486C145.502 67.6486 150.148 66.6976 154.865 64.8044L154.868 64.8032C158.903 63.1524 162.062 60.8815 164.319 57.9778C166.577 55.0727 167.912 51.5603 168.337 47.4602L168.337 47.4559C168.505 45.6792 168.589 43.9565 168.589 42.288C168.589 33.3779 166.088 25.2677 161.089 17.9706L161.088 17.9696C156.217 10.8949 149.427 7.34639 140.767 7.34639C132.92 7.34639 126.771 10.0408 122.385 15.4609ZM109.082 63.1956C103.889 56.9086 101.283 49.2063 101.283 40.0579C101.283 28.3397 105.098 18.8392 112.709 11.5104C120.377 4.17894 130.243 0.5 142.35 0.5C155.208 0.5 165.046 5.09425 171.937 14.2574C178.955 23.6628 182.5 37.2779 182.5 55.1725C182.5 75.4855 178.43 91.3953 170.345 102.955L170.344 102.957C162.209 114.676 151.664 120.5 138.685 120.5C127.914 120.5 118.731 117.152 111.109 110.465L111.107 110.463C106.215 106.212 103.865 102.07 103.865 98.0386C103.865 95.4475 104.525 93.5955 105.757 92.3868C106.99 91.1763 108.882 90.527 111.529 90.527C114.175 90.527 116.068 91.1763 117.301 92.3868C118.529 93.5917 119.188 95.4356 119.192 98.0136L119.028 99.6402L119.025 99.6653V99.6905V100.021C119.025 101.932 119.84 103.83 121.388 105.705C125.637 110.986 130.911 113.653 137.185 113.653C146.551 113.653 153.71 110.118 158.589 103.03L158.59 103.027C164.374 94.5087 167.256 84.3861 167.256 72.6824C167.256 70.2991 167.146 67.8343 166.922 65.2878L166.846 64.4337L166.14 64.9197C160.726 68.6446 155.517 71.4029 150.512 73.2024C146.627 74.5584 142.463 75.2383 138.019 75.2383C136.43 75.2383 134.758 75.1298 132.999 74.9118L132.999 74.9116L132.987 74.9105C122.653 73.875 114.703 69.9598 109.082 63.1956Z" fill="white" stroke="#DA442B"/>
</svg>
