<svg width="461" height="65" viewBox="0 0 461 65" fill="none" xmlns="http://www.w3.org/2000/svg">
<mask id="path-1-inside-1" fill="white">
<path d="M26.3531 35.6943C28.3329 35.6943 30.2292 35.4196 32.0419 34.87C33.8825 34.2929 35.4859 33.345 36.8524 32.0259C38.2467 30.707 39.3483 28.9347 40.157 26.709C40.9936 24.4557 41.4119 21.6667 41.4119 18.3418C41.4119 13.3682 40.1709 9.83724 37.6889 7.7489C35.2071 5.63307 31.4423 4.57515 26.3948 4.57515C24.4707 4.57515 22.8671 4.65758 21.5843 4.82246C20.3295 4.95984 19.2001 5.04227 18.1961 5.06976V35.4059C19.5626 35.4882 20.8454 35.557 22.0445 35.612C23.2715 35.6669 24.7076 35.6943 26.3531 35.6943ZM30.4524 60.7959V65H0V60.7959L6.77649 59.6005C7.44577 59.4907 7.96168 59.2158 8.32421 58.7761C8.68674 58.3365 8.868 57.8007 8.868 57.1687V8.61446C8.868 8.09238 8.70069 7.59777 8.36604 7.13063C8.0314 6.6635 7.5852 6.37498 7.02747 6.26506L0 4.90489V0.618264H13.5948C14.8776 0.618264 16.0349 0.590793 17.0667 0.535834C18.1265 0.480876 19.186 0.412176 20.2458 0.329744C21.3333 0.247305 22.5186 0.17861 23.8014 0.123657C25.112 0.0686984 26.6737 0.0412178 28.4863 0.0412178C32.7809 0.0412178 36.3923 0.453392 39.3203 1.27775C42.2486 2.1021 44.577 3.28366 46.306 4.82246C48.0629 6.36124 49.3039 8.27098 50.029 10.5517C50.7818 12.8324 51.1584 15.4015 51.1584 18.2593C51.1584 21.7216 50.5448 24.8404 49.3178 27.6157C48.0908 30.3635 46.3757 32.6856 44.1727 34.5815C41.9976 36.45 39.3761 37.8789 36.3086 38.8681C33.269 39.8573 29.9504 40.352 26.3531 40.352C24.9866 40.352 23.6201 40.3244 22.2536 40.2695C20.9151 40.187 19.5626 40.1184 18.1961 40.0634V57.1687C18.1961 57.7733 18.3775 58.2953 18.74 58.735C19.1303 59.1471 19.6323 59.3806 20.2458 59.4357L30.4524 60.7959ZM102.857 40.3107L91.7299 8.73811L81.1887 40.3107H102.857ZM83.1548 60.7959V65H61.403V60.7959L66.5063 59.6005C67.1198 59.4631 67.6357 59.2158 68.054 58.8586C68.5002 58.5014 68.8209 58.0204 69.0161 57.4159L88.9691 0.412181H97.9209L118.71 57.4159C118.934 58.0204 119.254 58.5014 119.673 58.8586C120.091 59.1884 120.607 59.4357 121.22 59.6005L126.031 60.7959V65H101.267V60.7959L109.55 59.312L104.614 45.3393H79.5156L74.8724 59.312L83.1548 60.7959ZM155.641 5.11097V31.9848C156.562 32.0398 157.566 32.081 158.653 32.1084C159.741 32.136 160.786 32.1497 161.791 32.1497C162.794 32.1497 163.715 32.1497 164.552 32.1497C165.416 32.1497 166.071 32.1497 166.517 32.1497C170.059 32.1221 172.944 30.9406 175.176 28.605C177.436 26.2693 178.564 22.6147 178.564 17.6411C178.564 13.4919 177.504 10.2769 175.386 7.9962C173.294 5.7155 169.404 4.57515 163.715 4.57515C162.069 4.57515 160.494 4.64384 158.987 4.78123C157.51 4.91863 156.394 5.02854 155.641 5.11097ZM164.969 60.7959V65H137.487V60.7959L144.096 59.5593C144.793 59.4219 145.337 59.1608 145.727 58.7761C146.146 58.3639 146.355 57.787 146.355 57.045V8.73811C146.355 8.02367 146.16 7.46037 145.769 7.04819C145.379 6.60854 144.835 6.32002 144.138 6.18263L137.487 4.90489V0.618264H150.998C153.424 0.618264 155.711 0.522091 157.858 0.329744C160.005 0.109915 162.473 0 165.263 0C173.628 0 179.596 1.41513 183.165 4.2454C186.736 7.04819 188.52 11.3211 188.52 17.064C188.52 20.2516 188.046 22.9444 187.098 25.1427C186.178 27.3135 185.02 29.0995 183.625 30.5009C182.232 31.8748 180.698 32.9327 179.024 33.6747C177.38 34.4166 175.831 34.9662 174.381 35.3234C175.943 36.3401 177.324 37.6178 178.522 39.1566C179.722 40.6955 180.92 42.6051 182.12 44.8859L188.394 56.7977C188.924 57.8144 189.441 58.5151 189.942 58.8998C190.444 59.2846 191.169 59.573 192.117 59.7654L196.761 60.7959V65H183.834C182.551 65 181.353 64.0932 180.238 62.2796C179.15 60.4661 177.881 58.048 176.431 55.0254L172.248 46.2461C171.272 44.2126 170.296 42.3579 169.319 40.6816C168.343 39.0055 167.367 37.6729 166.392 36.6836C164.299 36.6836 162.306 36.6836 160.411 36.6836C158.541 36.656 156.952 36.6423 155.641 36.6423V57.0863C155.641 57.8282 155.837 58.4052 156.227 58.8173C156.617 59.2021 157.189 59.4494 157.942 59.5593L164.969 60.7959ZM246.523 40.3107L235.395 8.73811L224.855 40.3107H246.523ZM226.82 60.7959V65H205.069V60.7959L210.172 59.6005C210.786 59.4631 211.302 59.2158 211.72 58.8586C212.166 58.5014 212.487 58.0204 212.682 57.4159L232.635 0.412181H241.586L262.376 57.4159C262.598 58.0204 262.919 58.5014 263.338 58.8586C263.757 59.1884 264.273 59.4357 264.886 59.6005L269.697 60.7959V65H244.933V60.7959L253.215 59.312L248.28 45.3393H223.18L218.538 59.312L226.82 60.7959ZM322.857 56.5091L326.454 45.298L331.265 45.9988C331.209 48.9115 331.041 52.0577 330.763 55.4375C330.513 58.8173 330.08 62.0049 329.466 65H281.152V60.7959L287.845 59.6418C288.57 59.5317 289.113 59.257 289.476 58.8173C289.839 58.3502 290.021 57.7733 290.021 57.0863V8.73811C290.021 8.02367 289.839 7.44662 289.476 7.00697C289.113 6.56732 288.57 6.27881 287.845 6.14142L281.152 4.90489V0.618264H310.224V4.90489L301.524 6.22385C300.799 6.33376 300.241 6.60854 299.85 7.04819C299.487 7.48785 299.307 8.06489 299.307 8.77933V59.9714H311.229C313.181 59.9714 314.951 59.8891 316.541 59.7241C318.158 59.5593 319.455 59.2983 320.431 58.9411C321.072 58.7211 321.588 58.4189 321.979 58.0343C322.369 57.6495 322.662 57.1412 322.857 56.5091ZM391.582 16.4458H386.938L385.014 8.65567C384.847 8.02367 384.569 7.52907 384.177 7.17185C383.787 6.78716 383.257 6.47115 382.589 6.22385C381.64 5.86663 380.399 5.61932 378.865 5.48194C377.36 5.31706 375.7 5.23463 373.888 5.23463H363.43V29.4706L383.802 28.7698V35.1173L363.43 34.5815V59.9714H376.272C378.085 59.9714 379.828 59.9028 381.501 59.7654C383.203 59.6279 384.527 59.3806 385.474 59.0234C386.117 58.7761 386.604 58.4601 386.938 58.0755C387.301 57.6908 387.595 57.1961 387.817 56.5916L390.954 47.6063L395.556 48.2657C395.527 50.9311 395.361 53.6789 395.054 56.5091C394.747 59.3395 394.329 62.1698 393.798 65H345.234V60.7959L351.926 59.6005C352.652 59.4631 353.195 59.1745 353.558 58.735C353.92 58.2953 354.102 57.7182 354.102 57.0038V8.77933C354.102 8.09238 353.907 7.52907 353.516 7.08942C353.153 6.62228 352.624 6.32002 351.926 6.18263L345.234 4.90489V0.618264H391.665C391.889 3.17374 391.987 5.75671 391.958 8.36715C391.958 10.9776 391.833 13.6705 391.582 16.4458ZM452.593 56.5091L456.191 45.298L461 45.9988C460.946 48.9115 460.778 52.0577 460.498 55.4375C460.247 58.8173 459.816 62.0049 459.203 65H410.889V60.7959L417.581 59.6418C418.307 59.5317 418.85 59.257 419.213 58.8173C419.575 58.3502 419.756 57.7733 419.756 57.0863V8.73811C419.756 8.02367 419.575 7.44662 419.213 7.00697C418.85 6.56732 418.307 6.27881 417.581 6.14142L410.889 4.90489V0.618264H439.96V4.90489L431.259 6.22385C430.534 6.33376 429.976 6.60854 429.586 7.04819C429.224 7.48785 429.043 8.06489 429.043 8.77933V59.9714H440.963C442.916 59.9714 444.688 59.8891 446.276 59.7241C447.894 59.5593 449.19 59.2983 450.166 58.9411C450.808 58.7211 451.324 58.4189 451.714 58.0343C452.104 57.6495 452.398 57.1412 452.593 56.5091Z"/>
</mask>
<path d="M26.3531 35.6943C28.3329 35.6943 30.2292 35.4196 32.0419 34.87C33.8825 34.2929 35.4859 33.345 36.8524 32.0259C38.2467 30.707 39.3483 28.9347 40.157 26.709C40.9936 24.4557 41.4119 21.6667 41.4119 18.3418C41.4119 13.3682 40.1709 9.83724 37.6889 7.7489C35.2071 5.63307 31.4423 4.57515 26.3948 4.57515C24.4707 4.57515 22.8671 4.65758 21.5843 4.82246C20.3295 4.95984 19.2001 5.04227 18.1961 5.06976V35.4059C19.5626 35.4882 20.8454 35.557 22.0445 35.612C23.2715 35.6669 24.7076 35.6943 26.3531 35.6943ZM30.4524 60.7959V65H0V60.7959L6.77649 59.6005C7.44577 59.4907 7.96168 59.2158 8.32421 58.7761C8.68674 58.3365 8.868 57.8007 8.868 57.1687V8.61446C8.868 8.09238 8.70069 7.59777 8.36604 7.13063C8.0314 6.6635 7.5852 6.37498 7.02747 6.26506L0 4.90489V0.618264H13.5948C14.8776 0.618264 16.0349 0.590793 17.0667 0.535834C18.1265 0.480876 19.186 0.412176 20.2458 0.329744C21.3333 0.247305 22.5186 0.17861 23.8014 0.123657C25.112 0.0686984 26.6737 0.0412178 28.4863 0.0412178C32.7809 0.0412178 36.3923 0.453392 39.3203 1.27775C42.2486 2.1021 44.577 3.28366 46.306 4.82246C48.0629 6.36124 49.3039 8.27098 50.029 10.5517C50.7818 12.8324 51.1584 15.4015 51.1584 18.2593C51.1584 21.7216 50.5448 24.8404 49.3178 27.6157C48.0908 30.3635 46.3757 32.6856 44.1727 34.5815C41.9976 36.45 39.3761 37.8789 36.3086 38.8681C33.269 39.8573 29.9504 40.352 26.3531 40.352C24.9866 40.352 23.6201 40.3244 22.2536 40.2695C20.9151 40.187 19.5626 40.1184 18.1961 40.0634V57.1687C18.1961 57.7733 18.3775 58.2953 18.74 58.735C19.1303 59.1471 19.6323 59.3806 20.2458 59.4357L30.4524 60.7959ZM102.857 40.3107L91.7299 8.73811L81.1887 40.3107H102.857ZM83.1548 60.7959V65H61.403V60.7959L66.5063 59.6005C67.1198 59.4631 67.6357 59.2158 68.054 58.8586C68.5002 58.5014 68.8209 58.0204 69.0161 57.4159L88.9691 0.412181H97.9209L118.71 57.4159C118.934 58.0204 119.254 58.5014 119.673 58.8586C120.091 59.1884 120.607 59.4357 121.22 59.6005L126.031 60.7959V65H101.267V60.7959L109.55 59.312L104.614 45.3393H79.5156L74.8724 59.312L83.1548 60.7959ZM155.641 5.11097V31.9848C156.562 32.0398 157.566 32.081 158.653 32.1084C159.741 32.136 160.786 32.1497 161.791 32.1497C162.794 32.1497 163.715 32.1497 164.552 32.1497C165.416 32.1497 166.071 32.1497 166.517 32.1497C170.059 32.1221 172.944 30.9406 175.176 28.605C177.436 26.2693 178.564 22.6147 178.564 17.6411C178.564 13.4919 177.504 10.2769 175.386 7.9962C173.294 5.7155 169.404 4.57515 163.715 4.57515C162.069 4.57515 160.494 4.64384 158.987 4.78123C157.51 4.91863 156.394 5.02854 155.641 5.11097ZM164.969 60.7959V65H137.487V60.7959L144.096 59.5593C144.793 59.4219 145.337 59.1608 145.727 58.7761C146.146 58.3639 146.355 57.787 146.355 57.045V8.73811C146.355 8.02367 146.16 7.46037 145.769 7.04819C145.379 6.60854 144.835 6.32002 144.138 6.18263L137.487 4.90489V0.618264H150.998C153.424 0.618264 155.711 0.522091 157.858 0.329744C160.005 0.109915 162.473 0 165.263 0C173.628 0 179.596 1.41513 183.165 4.2454C186.736 7.04819 188.52 11.3211 188.52 17.064C188.52 20.2516 188.046 22.9444 187.098 25.1427C186.178 27.3135 185.02 29.0995 183.625 30.5009C182.232 31.8748 180.698 32.9327 179.024 33.6747C177.38 34.4166 175.831 34.9662 174.381 35.3234C175.943 36.3401 177.324 37.6178 178.522 39.1566C179.722 40.6955 180.92 42.6051 182.12 44.8859L188.394 56.7977C188.924 57.8144 189.441 58.5151 189.942 58.8998C190.444 59.2846 191.169 59.573 192.117 59.7654L196.761 60.7959V65H183.834C182.551 65 181.353 64.0932 180.238 62.2796C179.15 60.4661 177.881 58.048 176.431 55.0254L172.248 46.2461C171.272 44.2126 170.296 42.3579 169.319 40.6816C168.343 39.0055 167.367 37.6729 166.392 36.6836C164.299 36.6836 162.306 36.6836 160.411 36.6836C158.541 36.656 156.952 36.6423 155.641 36.6423V57.0863C155.641 57.8282 155.837 58.4052 156.227 58.8173C156.617 59.2021 157.189 59.4494 157.942 59.5593L164.969 60.7959ZM246.523 40.3107L235.395 8.73811L224.855 40.3107H246.523ZM226.82 60.7959V65H205.069V60.7959L210.172 59.6005C210.786 59.4631 211.302 59.2158 211.72 58.8586C212.166 58.5014 212.487 58.0204 212.682 57.4159L232.635 0.412181H241.586L262.376 57.4159C262.598 58.0204 262.919 58.5014 263.338 58.8586C263.757 59.1884 264.273 59.4357 264.886 59.6005L269.697 60.7959V65H244.933V60.7959L253.215 59.312L248.28 45.3393H223.18L218.538 59.312L226.82 60.7959ZM322.857 56.5091L326.454 45.298L331.265 45.9988C331.209 48.9115 331.041 52.0577 330.763 55.4375C330.513 58.8173 330.08 62.0049 329.466 65H281.152V60.7959L287.845 59.6418C288.57 59.5317 289.113 59.257 289.476 58.8173C289.839 58.3502 290.021 57.7733 290.021 57.0863V8.73811C290.021 8.02367 289.839 7.44662 289.476 7.00697C289.113 6.56732 288.57 6.27881 287.845 6.14142L281.152 4.90489V0.618264H310.224V4.90489L301.524 6.22385C300.799 6.33376 300.241 6.60854 299.85 7.04819C299.487 7.48785 299.307 8.06489 299.307 8.77933V59.9714H311.229C313.181 59.9714 314.951 59.8891 316.541 59.7241C318.158 59.5593 319.455 59.2983 320.431 58.9411C321.072 58.7211 321.588 58.4189 321.979 58.0343C322.369 57.6495 322.662 57.1412 322.857 56.5091ZM391.582 16.4458H386.938L385.014 8.65567C384.847 8.02367 384.569 7.52907 384.177 7.17185C383.787 6.78716 383.257 6.47115 382.589 6.22385C381.64 5.86663 380.399 5.61932 378.865 5.48194C377.36 5.31706 375.7 5.23463 373.888 5.23463H363.43V29.4706L383.802 28.7698V35.1173L363.43 34.5815V59.9714H376.272C378.085 59.9714 379.828 59.9028 381.501 59.7654C383.203 59.6279 384.527 59.3806 385.474 59.0234C386.117 58.7761 386.604 58.4601 386.938 58.0755C387.301 57.6908 387.595 57.1961 387.817 56.5916L390.954 47.6063L395.556 48.2657C395.527 50.9311 395.361 53.6789 395.054 56.5091C394.747 59.3395 394.329 62.1698 393.798 65H345.234V60.7959L351.926 59.6005C352.652 59.4631 353.195 59.1745 353.558 58.735C353.92 58.2953 354.102 57.7182 354.102 57.0038V8.77933C354.102 8.09238 353.907 7.52907 353.516 7.08942C353.153 6.62228 352.624 6.32002 351.926 6.18263L345.234 4.90489V0.618264H391.665C391.889 3.17374 391.987 5.75671 391.958 8.36715C391.958 10.9776 391.833 13.6705 391.582 16.4458ZM452.593 56.5091L456.191 45.298L461 45.9988C460.946 48.9115 460.778 52.0577 460.498 55.4375C460.247 58.8173 459.816 62.0049 459.203 65H410.889V60.7959L417.581 59.6418C418.307 59.5317 418.85 59.257 419.213 58.8173C419.575 58.3502 419.756 57.7733 419.756 57.0863V8.73811C419.756 8.02367 419.575 7.44662 419.213 7.00697C418.85 6.56732 418.307 6.27881 417.581 6.14142L410.889 4.90489V0.618264H439.96V4.90489L431.259 6.22385C430.534 6.33376 429.976 6.60854 429.586 7.04819C429.224 7.48785 429.043 8.06489 429.043 8.77933V59.9714H440.963C442.916 59.9714 444.688 59.8891 446.276 59.7241C447.894 59.5593 449.19 59.2983 450.166 58.9411C450.808 58.7211 451.324 58.4189 451.714 58.0343C452.104 57.6495 452.398 57.1412 452.593 56.5091Z" fill="white" stroke="#DA442B" stroke-width="2" mask="url(#path-1-inside-1)"/>
</svg>
