<svg width="227" height="292" viewBox="0 0 227 292" fill="none" xmlns="http://www.w3.org/2000/svg">
<path d="M220.079 252.096C224.238 257.755 226.318 263.131 226.318 268.223C226.318 274.447 223.01 280.106 216.392 285.198C211.477 289.16 206.75 291.14 202.213 291.14C195.974 291.14 190.113 287.368 184.63 279.824L100.97 166.936C79.6055 190.702 65.615 207.583 58.9977 217.58C47.465 235.497 40.9424 253.793 39.4299 272.467C38.6736 283.783 32.718 289.442 21.5635 289.442C9.65245 289.442 3.69698 283.407 3.69698 271.335C3.69698 257.19 10.5978 239.836 24.3992 219.278C30.4492 210.035 37.1611 200.698 44.5346 191.268C53.9876 178.819 67.0329 162.975 83.6704 143.737L6.24933 39.3375C2.08995 33.6792 0.0102539 28.3979 0.0102539 23.4938C0.0102539 17.2695 3.31885 11.6109 9.93605 6.51844C14.8517 2.74612 19.5781 0.859863 24.1156 0.859863C30.5439 0.859863 36.4992 4.53776 41.9822 11.8938L118.269 114.878C135.852 96.0167 147.574 82.1534 153.435 73.2884C165.345 55.7472 172.246 37.64 174.137 18.967C175.082 7.65002 180.943 1.99165 191.72 1.99165H192.287C203.82 2.36877 209.586 8.21592 209.586 19.5329V20.6645C209.397 34.8107 202.213 52.0693 188.033 72.4395C181.794 81.4931 174.893 90.6411 167.33 99.8832C159.579 109.88 148.897 122.517 135.285 137.795L220.079 252.096Z" fill="#075AB4" fill-opacity="0.29"/>
</svg>
